<svg xmlns="http://www.w3.org/2000/svg" width="48" height="48" aria-hidden="true" class="hand-drawn-mint-cross" viewBox="0 0 100 100"><path fill="none" stroke="#c2e1d3" stroke-dasharray="4, 2" stroke-linecap="round" stroke-linejoin="round" stroke-width="8" d="M57.05 16.87c-6.323.245-15.496.271-22.913 4.236C23.288 26.906 15 38.518 15 50c0 19.33 14.059 35.159 33.389 35.159 10.474 0 26.773-3.977 33.187-16.875 5.423-10.905 5.267-30.07-2.098-36.85" style="display:inline"/><path stroke="#fff" stroke-dasharray="2, 1" stroke-linecap="round" stroke-width="8" d="M30.107 35.433c3.516 7.976 5.594 9.759 10.53 15.58 0 0 8.873 5.56 13.322 8.322 3.827 2.375 7.47 5.083 11.501 7.094 1.177.587 3.676 1.436 3.676 1.436" style="display:inline"/><path stroke="#fff" stroke-dasharray="2, 1" stroke-linecap="round" stroke-width="8" d="M85.36 16.87C72.7 23.12 61.395 29.697 48.435 43.942c-11.468 15.39-12.714 17.513-14.67 23.744" style="display:inline;fill:none;fill-opacity:1"/></svg>